999
dxfrw 0.5.10
0
SECTION
2
HEADER
9
$ACADVER
1
AC1021
9
$HANDSEED
5
20000
9
$DWGCODEPAGE
3
ANSI_1252
9
$INSBASE
10
0
20
0
30
0
9
$EXTMIN
10
-66.25
20
0
30
0
9
$EXTMAX
10
375
20
466.25
30
0
9
$LIMMIN
10
0
20
0
9
$LIMMAX
10
420
20
297
9
$ORTHOMODE
70
0
9
$LTSCALE
40
1
9
$TEXTSTYLE
7
STANDARD
9
$CLAYER
8
Dimension
9
$DIMASZ
40
2.5
9
$DIMLFAC
40
1
9
$DIMSCALE
40
2
9
$DIMEXO
40
0.625
9
$DIMEXE
40
1.25
9
$DIMTXT
40
2.5
9
$DIMTSZ
40
0
9
$DIMAUNIT
70
0
9
$DIMADEC
70
2
9
$DIMLUNIT
70
2
9
$DIMSTYLE
2
STANDARD
9
$DIMGAP
40
0.625
9
$DIMTIH
70
0
9
$LUNITS
70
2
9
$LUPREC
70
4
9
$AUNITS
70
0
9
$AUPREC
70
2
9
$SPLINESEGS
70
8
9
$GRIDMODE
70
1
9
$SNAPSTYLE
70
0
9
$GRIDUNIT
10
0
20
0
9
$PINSBASE
10
40.276203966
20
50.7592067989
30
0
9
$PLIMMIN
10
0
20
0
9
$PLIMMAX
10
210
20
297
9
$INSUNITS
70
4
9
$PSVPSCALE
40
0.419262600937
0
ENDSEC
0
SECTION
2
CLASSES
0
ENDSEC
0
SECTION
2
TABLES
0
TABLE
2
VPORT
5
8
330
0
100
AcDbSymbolTable
70
1
0
VPORT
5
31
330
2
100
AcDbSymbolTableRecord
100
AcDbViewportTableRecord
2
*ACTIVE
70
0
10
0
20
0
11
1
21
1
12
87.0809600003
22
65.6588800002
13
0
23
0
14
10
24
10
15
10
25
10
16
0
26
0
36
1
17
0
27
0
37
0
40
64.1433600002
41
2
42
50
43
0
44
0
50
0
51
0
71
0
72
100
73
1
74
3
75
0
76
1
77
0
78
0
281
0
65
1
110
0
120
0
130
0
111
1
121
0
131
0
112
0
122
1
132
0
79
0
146
0
348
10020
60
7
61
5
292
1
282
1
141
0
142
0
63
250
421
3358443
0
ENDTAB
0
TABLE
2
LTYPE
5
5
330
0
100
AcDbSymbolTable
70
4
0
LTYPE
5
14
330
5
100
AcDbSymbolTableRecord
100
AcDbLinetypeTableRecord
2
ByBlock
70
0
3

72
65
73
0
40
0
0
LTYPE
5
15
330
5
100
AcDbSymbolTableRecord
100
AcDbLinetypeTableRecord
2
ByLayer
70
0
3

72
65
73
0
40
0
0
LTYPE
5
16
330
5
100
AcDbSymbolTableRecord
100
AcDbLinetypeTableRecord
2
Continuous
70
0
3
Solid line
72
65
73
0
40
0
0
LTYPE
5
32
330
5
100
AcDbSymbolTableRecord
100
AcDbLinetypeTableRecord
2
DOT
70
0
3
Dot . . . . . . . . . . . . . . . . . . . . . .
72
65
73
2
40
6.35
49
0
74
0
49
-6.35
74
0
0
LTYPE
5
33
330
5
100
AcDbSymbolTableRecord
100
AcDbLinetypeTableRecord
2
DOT2
70
0
3
Dot (.5x) .....................................
72
65
73
2
40
3.175
49
0
74
0
49
-3.175
74
0
0
LTYPE
5
34
330
5
100
AcDbSymbolTableRecord
100
AcDbLinetypeTableRecord
2
DOTX2
70
0
3
Dot (2x) .  .  .  .  .  .  .  .  .  .  .  .  .
72
65
73
2
40
12.7
49
0
74
0
49
-12.7
74
0
0
LTYPE
5
35
330
5
100
AcDbSymbolTableRecord
100
AcDbLinetypeTableRecord
2
DASHED
70
0
3
Dot . . . . . . . . . . . . . . . . . . . . . .
72
65
73
2
40
19.05
49
12.7
74
0
49
-6.35
74
0
0
LTYPE
5
36
330
5
100
AcDbSymbolTableRecord
100
AcDbLinetypeTableRecord
2
DASHED2
70
0
3
Dashed (.5x) _ _ _ _ _ _ _ _ _ _ _ _ _ _ _ _ _
72
65
73
2
40
9.525
49
6.35
74
0
49
-3.175
74
0
0
LTYPE
5
37
330
5
100
AcDbSymbolTableRecord
100
AcDbLinetypeTableRecord
2
DASHEDX2
70
0
3
Dashed (2x) ____  ____  ____  ____  ____  ___
72
65
73
2
40
38.1
49
25.4
74
0
49
-12.7
74
0
0
LTYPE
5
38
330
5
100
AcDbSymbolTableRecord
100
AcDbLinetypeTableRecord
2
DASHDOT
70
0
3
Dash dot __ . __ . __ . __ . __ . __ . __ . __
72
65
73
4
40
25.4
49
12.7
74
0
49
-6.35
74
0
49
0
74
0
49
-6.35
74
0
0
LTYPE
5
39
330
5
100
AcDbSymbolTableRecord
100
AcDbLinetypeTableRecord
2
DASHDOT2
70
0
3
Dash dot (.5x) _._._._._._._._._._._._._._._.
72
65
73
4
40
12.7
49
6.35
74
0
49
-3.175
74
0
49
0
74
0
49
-3.175
74
0
0
LTYPE
5
3A
330
5
100
AcDbSymbolTableRecord
100
AcDbLinetypeTableRecord
2
DASHDOTX2
70
0
3
Dash dot (2x) ____  .  ____  .  ____  .  ___
72
65
73
4
40
50.8
49
25.4
74
0
49
-12.7
74
0
49
0
74
0
49
-12.7
74
0
0
LTYPE
5
3B
330
5
100
AcDbSymbolTableRecord
100
AcDbLinetypeTableRecord
2
DIVIDE
70
0
3
Divide ____ . . ____ . . ____ . . ____ . . ____
72
65
73
6
40
31.75
49
12.7
74
0
49
-6.35
74
0
49
0
74
0
49
-6.35
74
0
49
0
74
0
49
-6.35
74
0
0
LTYPE
5
3C
330
5
100
AcDbSymbolTableRecord
100
AcDbLinetypeTableRecord
2
DIVIDE2
70
0
3
Divide (.5x) __..__..__..__..__..__..__..__.._
72
65
73
6
40
15.875
49
6.35
74
0
49
-3.175
74
0
49
0
74
0
49
-3.175
74
0
49
0
74
0
49
-3.175
74
0
0
LTYPE
5
3D
330
5
100
AcDbSymbolTableRecord
100
AcDbLinetypeTableRecord
2
DIVIDEX2
70
0
3
Divide (2x) ________  .  .  ________  .  .  _
72
65
73
6
40
63.5
49
25.4
74
0
49
-12.7
74
0
49
0
74
0
49
-12.7
74
0
49
0
74
0
49
-12.7
74
0
0
LTYPE
5
3E
330
5
100
AcDbSymbolTableRecord
100
AcDbLinetypeTableRecord
2
BORDER
70
0
3
Border __ __ . __ __ . __ __ . __ __ . __ __ .
72
65
73
6
40
44.45
49
12.7
74
0
49
-6.35
74
0
49
12.7
74
0
49
-6.35
74
0
49
0
74
0
49
-6.35
74
0
0
LTYPE
5
3F
330
5
100
AcDbSymbolTableRecord
100
AcDbLinetypeTableRecord
2
BORDER2
70
0
3
Border (.5x) __.__.__.__.__.__.__.__.__.__.__.
72
65
73
6
40
22.225
49
6.35
74
0
49
-3.175
74
0
49
6.35
74
0
49
-3.175
74
0
49
0
74
0
49
-3.175
74
0
0
LTYPE
5
40
330
5
100
AcDbSymbolTableRecord
100
AcDbLinetypeTableRecord
2
BORDERX2
70
0
3
Border (2x) ____  ____  .  ____  ____  .  ___
72
65
73
6
40
88.9
49
25.4
74
0
49
-12.7
74
0
49
25.4
74
0
49
-12.7
74
0
49
0
74
0
49
-12.7
74
0
0
LTYPE
5
41
330
5
100
AcDbSymbolTableRecord
100
AcDbLinetypeTableRecord
2
CENTER
70
0
3
Center ____ _ ____ _ ____ _ ____ _ ____ _ ____
72
65
73
4
40
50.8
49
31.75
74
0
49
-6.35
74
0
49
6.35
74
0
49
-6.35
74
0
0
LTYPE
5
42
330
5
100
AcDbSymbolTableRecord
100
AcDbLinetypeTableRecord
2
CENTER2
70
0
3
Center (.5x) ___ _ ___ _ ___ _ ___ _ ___ _ ___
72
65
73
4
40
28.575
49
19.05
74
0
49
-3.175
74
0
49
3.175
74
0
49
-3.175
74
0
0
LTYPE
5
43
330
5
100
AcDbSymbolTableRecord
100
AcDbLinetypeTableRecord
2
CENTERX2
70
0
3
Center (2x) ________  __  ________  __  _____
72
65
73
4
40
101.6
49
63.5
74
0
49
-12.7
74
0
49
12.7
74
0
49
-12.7
74
0
0
ENDTAB
0
TABLE
2
LAYER
5
2
330
0
100
AcDbSymbolTable
70
1
0
LAYER
5
10
330
2
100
AcDbSymbolTableRecord
100
AcDbLayerTableRecord
2
0
70
0
62
7
6
CONTINUOUS
370
25
390
F
0
LAYER
5
44
330
2
100
AcDbSymbolTableRecord
100
AcDbLayerTableRecord
2
Wheels
70
1
62
5
6
CONTINUOUS
290
0
370
25
390
F
0
LAYER
5
45
330
2
100
AcDbSymbolTableRecord
100
AcDbLayerTableRecord
2
Corner-Blocks
70
0
62
3
6
CONTINUOUS
370
13
390
F
0
LAYER
5
46
330
2
100
AcDbSymbolTableRecord
100
AcDbLayerTableRecord
2
Wheels-Down
70
1
62
5
6
CONTINUOUS
370
25
390
F
0
LAYER
5
47
330
2
100
AcDbSymbolTableRecord
100
AcDbLayerTableRecord
2
helper
70
1
62
7
6
CONTINUOUS
290
0
370
0
390
F
0
LAYER
5
48
330
2
100
AcDbSymbolTableRecord
100
AcDbLayerTableRecord
2
Bolts
70
0
62
7
6
CONTINUOUS
370
0
390
F
0
LAYER
5
49
330
2
100
AcDbSymbolTableRecord
100
AcDbLayerTableRecord
2
Dimension
70
0
62
1
6
CONTINUOUS
370
0
390
F
0
ENDTAB
0
TABLE
2
STYLE
5
3
330
0
100
AcDbSymbolTable
70
3
0
STYLE
5
4A
330
2
100
AcDbSymbolTableRecord
100
AcDbTextStyleTableRecord
2
Standard
70
0
40
0
41
1
50
0
71
0
42
1
3
txt
4

0
ENDTAB
0
TABLE
2
VIEW
5
6
330
0
100
AcDbSymbolTable
70
0
0
ENDTAB
0
TABLE
2
UCS
5
7
330
0
100
AcDbSymbolTable
70
0
0
ENDTAB
0
TABLE
2
APPID
5
9
330
0
100
AcDbSymbolTable
70
1
0
APPID
5
12
330
9
100
AcDbSymbolTableRecord
100
AcDbRegAppTableRecord
2
ACAD
70
0
0
ENDTAB
0
TABLE
2
DIMSTYLE
5
A
330
0
100
AcDbSymbolTable
70
1
100
AcDbDimStyleTable
71
1
0
DIMSTYLE
105
4B
330
A
100
AcDbSymbolTableRecord
100
AcDbDimStyleTableRecord
2
Standard
70
0
40
1
41
2.5
42
0.625
43
0.38
44
1.25
45
0
46
0
47
0
48
0
140
2.5
141
0.09
142
0
143
25.4
144
1
145
0
146
1
147
0.625
148
0
71
0
72
0
73
0
74
1
75
0
76
0
77
0
78
0
79
0
170
0
171
2
172
0
173
0
174
0
175
0
176
0
177
0
178
0
179
0
271
4
272
4
273
2
274
2
275
0
276
0
277
2
278
46
279
0
280
0
281
0
282
0
283
1
284
0
285
0
286
0
288
0
289
3
340
Standard
341

371
-2
372
-2
0
ENDTAB
0
TABLE
2
BLOCK_RECORD
5
1
330
0
100
AcDbSymbolTable
70
2
0
BLOCK_RECORD
5
1F
330
1
100
AcDbSymbolTableRecord
100
AcDbBlockTableRecord
2
*Model_Space
70
0
280
1
281
0
0
BLOCK_RECORD
5
1E
330
1
100
AcDbSymbolTableRecord
100
AcDbBlockTableRecord
2
*Paper_Space
70
0
280
1
281
0
0
BLOCK_RECORD
5
4C
330
1
100
AcDbSymbolTableRecord
100
AcDbBlockTableRecord
2
*D11
70
0
280
1
281
0
0
BLOCK_RECORD
5
4F
330
1
100
AcDbSymbolTableRecord
100
AcDbBlockTableRecord
2
*D12
70
0
280
1
281
0
0
BLOCK_RECORD
5
52
330
1
100
AcDbSymbolTableRecord
100
AcDbBlockTableRecord
2
*D13
70
0
280
1
281
0
0
BLOCK_RECORD
5
55
330
1
100
AcDbSymbolTableRecord
100
AcDbBlockTableRecord
2
*D9
70
0
280
1
281
0
0
BLOCK_RECORD
5
58
330
1
100
AcDbSymbolTableRecord
100
AcDbBlockTableRecord
2
*D1
70
0
280
1
281
0
0
BLOCK_RECORD
5
5B
330
1
100
AcDbSymbolTableRecord
100
AcDbBlockTableRecord
2
*D2
70
0
280
1
281
0
0
BLOCK_RECORD
5
5E
330
1
100
AcDbSymbolTableRecord
100
AcDbBlockTableRecord
2
*D14
70
0
280
1
281
0
0
BLOCK_RECORD
5
61
330
1
100
AcDbSymbolTableRecord
100
AcDbBlockTableRecord
2
*D8
70
0
280
1
281
0
0
BLOCK_RECORD
5
64
330
1
100
AcDbSymbolTableRecord
100
AcDbBlockTableRecord
2
*D15
70
0
280
1
281
0
0
BLOCK_RECORD
5
67
330
1
100
AcDbSymbolTableRecord
100
AcDbBlockTableRecord
2
*D4
70
0
280
1
281
0
0
BLOCK_RECORD
5
6A
330
1
100
AcDbSymbolTableRecord
100
AcDbBlockTableRecord
2
*D17
70
0
280
1
281
0
0
BLOCK_RECORD
5
6D
330
1
100
AcDbSymbolTableRecord
100
AcDbBlockTableRecord
2
*D16
70
0
280
1
281
0
0
BLOCK_RECORD
5
70
330
1
100
AcDbSymbolTableRecord
100
AcDbBlockTableRecord
2
*D5
70
0
280
1
281
0
0
BLOCK_RECORD
5
73
330
1
100
AcDbSymbolTableRecord
100
AcDbBlockTableRecord
2
*D6
70
0
280
1
281
0
0
BLOCK_RECORD
5
76
330
1
100
AcDbSymbolTableRecord
100
AcDbBlockTableRecord
2
*D3
70
0
280
1
281
0
0
BLOCK_RECORD
5
79
330
1
100
AcDbSymbolTableRecord
100
AcDbBlockTableRecord
2
*D10
70
0
280
1
281
0
0
BLOCK_RECORD
5
7C
330
1
100
AcDbSymbolTableRecord
100
AcDbBlockTableRecord
2
*D7
70
0
280
1
281
0
0
ENDTAB
0
ENDSEC
0
SECTION
2
BLOCKS
0
BLOCK
5
20
330
1F
100
AcDbEntity
8
0
100
AcDbBlockBegin
2
*Model_Space
70
0
10
0
20
0
30
0
3
*Model_Space
1

0
ENDBLK
5
21
330
1F
100
AcDbEntity
8
0
100
AcDbBlockEnd
0
BLOCK
5
1C
330
1B
100
AcDbEntity
8
0
100
AcDbBlockBegin
2
*Paper_Space
70
0
10
0
20
0
30
0
3
*Paper_Space
1

0
ENDBLK
5
1D
330
1F
100
AcDbEntity
8
0
100
AcDbBlockEnd
0
BLOCK
5
4D
330
4C
100
AcDbEntity
8
0
100
AcDbBlockBegin
2
*D11
70
1
10
0
20
0
3
*D11
1

0
LINE
5
7F
100
AcDbEntity
8
Dimension
6
CONTINUOUS
62
7
370
0
100
AcDbLine
10
-30
20
380
11
-30
21
202
0
SOLID
5
80
100
AcDbEntity
8
Dimension
6
CONTINUOUS
62
7
370
0
100
AcDbTrace
10
-30
20
380
30
0
11
-29.1674306845
21
375
31
0
12
-30.8325693155
22
375
32
0
13
-30.8325693155
23
375
33
0
0
SOLID
5
81
100
AcDbEntity
8
Dimension
6
CONTINUOUS
62
7
370
0
100
AcDbTrace
10
-30
20
202
30
0
11
-30.8325693155
21
207
31
0
12
-29.1674306845
22
207
32
0
13
-29.1674306845
23
207
33
0
0
MTEXT
5
82
100
AcDbEntity
8
Dimension
6
CONTINUOUS
62
7
370
0
100
AcDbMText
10
-33.75
20
291
30
0
40
5
41
8.88888888889
71
5
72
1
1
178
7
standard
210
0
220
0
230
1
50
90
73
2
44
1
0
LINE
5
83
100
AcDbEntity
8
Dimension
6
CONTINUOUS
62
7
370
0
100
AcDbLine
10
-1.25
20
380
11
-32.5
21
380
0
LINE
5
84
100
AcDbEntity
8
Dimension
6
CONTINUOUS
62
7
370
0
100
AcDbLine
10
18.75
20
202
11
-32.5
21
202
0
ENDBLK
5
4E
330
4C
100
AcDbEntity
8
0
100
AcDbBlockEnd
0
BLOCK
5
50
330
4F
100
AcDbEntity
8
0
100
AcDbBlockBegin
2
*D12
70
1
10
0
20
0
3
*D12
1

0
LINE
5
85
100
AcDbEntity
8
Dimension
6
CONTINUOUS
62
7
370
0
100
AcDbLine
10
-40
20
380
11
-40
21
100
0
SOLID
5
86
100
AcDbEntity
8
Dimension
6
CONTINUOUS
62
7
370
0
100
AcDbTrace
10
-40
20
380
30
0
11
-39.1674306845
21
375
31
0
12
-40.8325693155
22
375
32
0
13
-40.8325693155
23
375
33
0
0
SOLID
5
87
100
AcDbEntity
8
Dimension
6
CONTINUOUS
62
7
370
0
100
AcDbTrace
10
-40
20
100
30
0
11
-40.8325693155
21
105
31
0
12
-39.1674306845
22
105
32
0
13
-39.1674306845
23
105
33
0
0
MTEXT
5
88
100
AcDbEntity
8
Dimension
6
CONTINUOUS
62
7
370
0
100
AcDbMText
10
-43.75
20
240
30
0
40
5
41
10
71
5
72
1
1
280
7
standard
210
0
220
0
230
1
50
90
73
2
44
1
0
LINE
5
89
100
AcDbEntity
8
Dimension
6
CONTINUOUS
62
7
370
0
100
AcDbLine
10
-1.25
20
380
11
-42.5
21
380
0
LINE
5
8A
100
AcDbEntity
8
Dimension
6
CONTINUOUS
62
7
370
0
100
AcDbLine
10
103.75
20
100
11
-42.5
21
100
0
ENDBLK
5
51
330
4F
100
AcDbEntity
8
0
100
AcDbBlockEnd
0
BLOCK
5
53
330
52
100
AcDbEntity
8
0
100
AcDbBlockBegin
2
*D13
70
1
10
0
20
0
3
*D13
1

0
LINE
5
8B
100
AcDbEntity
8
Dimension
6
CONTINUOUS
62
7
370
0
100
AcDbLine
10
-50
20
380
11
-50
21
20
0
SOLID
5
8C
100
AcDbEntity
8
Dimension
6
CONTINUOUS
62
7
370
0
100
AcDbTrace
10
-50
20
380
30
0
11
-49.1674306845
21
375
31
0
12
-50.8325693155
22
375
32
0
13
-50.8325693155
23
375
33
0
0
SOLID
5
8D
100
AcDbEntity
8
Dimension
6
CONTINUOUS
62
7
370
0
100
AcDbTrace
10
-50
20
20
30
0
11
-50.8325693155
21
25
31
0
12
-49.1674306845
22
25
32
0
13
-49.1674306845
23
25
33
0
0
MTEXT
5
8E
100
AcDbEntity
8
Dimension
6
CONTINUOUS
62
7
370
0
100
AcDbMText
10
-53.75
20
200
30
0
40
5
41
10
71
5
72
1
1
360
7
standard
210
0
220
0
230
1
50
90
73
2
44
1
0
LINE
5
8F
100
AcDbEntity
8
Dimension
6
CONTINUOUS
62
7
370
0
100
AcDbLine
10
-1.25
20
380
11
-52.5
21
380
0
LINE
5
90
100
AcDbEntity
8
Dimension
6
CONTINUOUS
62
7
370
0
100
AcDbLine
10
18.75
20
20
11
-52.5
21
20
0
ENDBLK
5
54
330
52
100
AcDbEntity
8
0
100
AcDbBlockEnd
0
BLOCK
5
56
330
55
100
AcDbEntity
8
0
100
AcDbBlockBegin
2
*D9
70
1
10
0
20
0
3
*D9
1

0
LINE
5
91
100
AcDbEntity
8
Dimension
6
CONTINUOUS
62
7
370
0
100
AcDbLine
10
-10
20
380
11
-10
21
360
0
SOLID
5
92
100
AcDbEntity
8
Dimension
6
CONTINUOUS
62
7
370
0
100
AcDbTrace
10
-10
20
380
30
0
11
-9.16743068445
21
375
31
0
12
-10.8325693155
22
375
32
0
13
-10.8325693155
23
375
33
0
0
SOLID
5
93
100
AcDbEntity
8
Dimension
6
CONTINUOUS
62
7
370
0
100
AcDbTrace
10
-10
20
360
30
0
11
-10.8325693155
21
365
31
0
12
-9.16743068445
22
365
32
0
13
-9.16743068445
23
365
33
0
0
MTEXT
5
94
100
AcDbEntity
8
Dimension
6
CONTINUOUS
62
7
370
0
100
AcDbMText
10
-13.75
20
370
30
0
40
5
41
6.11111111111
71
5
72
1
1
20
7
standard
210
0
220
0
230
1
50
90
73
2
44
1
0
LINE
5
95
100
AcDbEntity
8
Dimension
6
CONTINUOUS
62
7
370
0
100
AcDbLine
10
-1.25
20
380
11
-12.5
21
380
0
LINE
5
96
100
AcDbEntity
8
Dimension
6
CONTINUOUS
62
7
370
0
100
AcDbLine
10
18.75
20
360
11
-12.5
21
360
0
ENDBLK
5
57
330
55
100
AcDbEntity
8
0
100
AcDbBlockEnd
0
BLOCK
5
59
330
58
100
AcDbEntity
8
0
100
AcDbBlockBegin
2
*D1
70
1
10
0
20
0
3
*D1
1

0
LINE
5
97
100
AcDbEntity
8
Dimension
6
CONTINUOUS
62
7
370
0
100
AcDbLine
10
0
20
385
11
20
21
385
0
SOLID
5
98
100
AcDbEntity
8
Dimension
6
CONTINUOUS
62
7
370
0
100
AcDbTrace
10
0
20
385
30
0
11
5
21
385.832569316
31
0
12
5
22
384.167430684
32
0
13
5
23
384.167430684
33
0
0
SOLID
5
99
100
AcDbEntity
8
Dimension
6
CONTINUOUS
62
7
370
0
100
AcDbTrace
10
20
20
385
30
0
11
15
21
384.167430684
31
0
12
15
22
385.832569316
32
0
13
15
23
385.832569316
33
0
0
MTEXT
5
9A
100
AcDbEntity
8
Dimension
6
CONTINUOUS
62
7
370
0
100
AcDbMText
10
10
20
388.75
30
0
40
5
41
6.11111111111
71
5
72
1
1
20
7
standard
210
0
220
0
230
1
50
0
73
2
44
1
0
LINE
5
9B
100
AcDbEntity
8
Dimension
6
CONTINUOUS
62
7
370
0
100
AcDbLine
10
7.65404249467e-17
20
381.25
11
1.53080849893e-16
21
387.5
0
LINE
5
9C
100
AcDbEntity
8
Dimension
6
CONTINUOUS
62
7
370
0
100
AcDbLine
10
20
20
361.25
11
20
21
387.5
0
ENDBLK
5
5A
330
58
100
AcDbEntity
8
0
100
AcDbBlockEnd
0
BLOCK
5
5C
330
5B
100
AcDbEntity
8
0
100
AcDbBlockBegin
2
*D2
70
1
10
0
20
0
3
*D2
1

0
LINE
5
9D
100
AcDbEntity
8
Dimension
6
CONTINUOUS
62
7
370
0
100
AcDbLine
10
0
20
400
11
92.4
21
400
0
SOLID
5
9E
100
AcDbEntity
8
Dimension
6
CONTINUOUS
62
7
370
0
100
AcDbTrace
10
0
20
400
30
0
11
5
21
400.832569316
31
0
12
5
22
399.167430684
32
0
13
5
23
399.167430684
33
0
0
SOLID
5
9F
100
AcDbEntity
8
Dimension
6
CONTINUOUS
62
7
370
0
100
AcDbTrace
10
92.4
20
400
30
0
11
87.4
21
399.167430684
31
0
12
87.4
22
400.832569316
32
0
13
87.4
23
400.832569316
33
0
0
MTEXT
5
A0
100
AcDbEntity
8
Dimension
6
CONTINUOUS
62
7
370
0
100
AcDbMText
10
46.2
20
403.75
30
0
40
5
41
12.2222222222
71
5
72
1
1
92.4
7
standard
210
0
220
0
230
1
50
0
73
2
44
1
0
LINE
5
A1
100
AcDbEntity
8
Dimension
6
CONTINUOUS
62
7
370
0
100
AcDbLine
10
7.65404249467e-17
20
381.25
11
1.53080849893e-16
21
402.5
0
LINE
5
A2
100
AcDbEntity
8
Dimension
6
CONTINUOUS
62
7
370
0
100
AcDbLine
10
92.4
20
381.25
11
92.4
21
402.5
0
ENDBLK
5
5D
330
5B
100
AcDbEntity
8
0
100
AcDbBlockEnd
0
BLOCK
5
5F
330
5E
100
AcDbEntity
8
0
100
AcDbBlockBegin
2
*D14
70
1
10
0
20
0
3
*D14
1

0
LINE
5
A3
100
AcDbEntity
8
Dimension
6
CONTINUOUS
62
7
370
0
100
AcDbLine
10
-60
20
380
11
-60
21
4.26325641456e-15
0
SOLID
5
A4
100
AcDbEntity
8
Dimension
6
CONTINUOUS
62
7
370
0
100
AcDbTrace
10
-60
20
380
30
0
11
-59.1674306845
21
375
31
0
12
-60.8325693155
22
375
32
0
13
-60.8325693155
23
375
33
0
0
SOLID
5
A5
100
AcDbEntity
8
Dimension
6
CONTINUOUS
62
7
370
0
100
AcDbTrace
10
-60
20
4.26325641456e-15
30
0
11
-60.8325693155
21
5
31
0
12
-59.1674306845
22
5
32
0
13
-59.1674306845
23
5
33
0
0
MTEXT
5
A6
100
AcDbEntity
8
Dimension
6
CONTINUOUS
62
7
370
0
100
AcDbMText
10
-63.75
20
190
30
0
40
5
41
10
71
5
72
1
1
380
7
standard
210
0
220
0
230
1
50
90
73
2
44
1
0
LINE
5
A7
100
AcDbEntity
8
Dimension
6
CONTINUOUS
62
7
370
0
100
AcDbLine
10
-1.25
20
380
11
-62.5
21
380
0
LINE
5
A8
100
AcDbEntity
8
Dimension
6
CONTINUOUS
62
7
370
0
100
AcDbLine
10
-1.25
20
1.53080849893e-16
11
-62.5
21
4.56941811435e-15
0
ENDBLK
5
60
330
5E
100
AcDbEntity
8
0
100
AcDbBlockEnd
0
BLOCK
5
62
330
61
100
AcDbEntity
8
0
100
AcDbBlockBegin
2
*D8
70
1
10
0
20
0
3
*D8
1

0
LINE
5
A9
100
AcDbEntity
8
Dimension
6
CONTINUOUS
62
7
370
0
100
AcDbLine
10
0
20
460
11
375
21
460
0
SOLID
5
AA
100
AcDbEntity
8
Dimension
6
CONTINUOUS
62
7
370
0
100
AcDbTrace
10
0
20
460
30
0
11
5
21
460.832569316
31
0
12
5
22
459.167430684
32
0
13
5
23
459.167430684
33
0
0
SOLID
5
AB
100
AcDbEntity
8
Dimension
6
CONTINUOUS
62
7
370
0
100
AcDbTrace
10
375
20
460
30
0
11
370
21
459.167430684
31
0
12
370
22
460.832569316
32
0
13
370
23
460.832569316
33
0
0
MTEXT
5
AC
100
AcDbEntity
8
Dimension
6
CONTINUOUS
62
7
370
0
100
AcDbMText
10
187.5
20
463.75
30
0
40
5
41
10
71
5
72
1
1
375
7
standard
210
0
220
0
230
1
50
0
73
2
44
1
0
LINE
5
AD
100
AcDbEntity
8
Dimension
6
CONTINUOUS
62
7
370
0
100
AcDbLine
10
7.65404249467e-17
20
381.25
11
1.53080849893e-16
21
462.5
0
LINE
5
AE
100
AcDbEntity
8
Dimension
6
CONTINUOUS
62
7
370
0
100
AcDbLine
10
375
20
381.25
11
375
21
462.5
0
ENDBLK
5
63
330
61
100
AcDbEntity
8
0
100
AcDbBlockEnd
0
BLOCK
5
65
330
64
100
AcDbEntity
8
0
100
AcDbBlockBegin
2
*D15
70
1
10
0
20
0
3
*D15
1

0
LINE
5
AF
100
AcDbEntity
8
Dimension
6
CONTINUOUS
62
7
370
0
100
AcDbLine
10
11.027361139
20
370.746708886
11
28.972638861
21
349.253291114
0
SOLID
5
B0
100
AcDbEntity
8
Dimension
6
CONTINUOUS
62
7
370
0
100
AcDbTrace
10
17.4363888969
20
363.070488253
30
0
11
13.5927764421
21
366.375002584
31
0
12
14.8709735937
22
367.442194555
32
0
13
14.8709735937
23
367.442194555
33
0
0
SOLID
5
B1
100
AcDbEntity
8
Dimension
6
CONTINUOUS
62
7
370
0
100
AcDbTrace
10
22.5636111031
20
356.929511747
30
0
11
26.4072235579
21
353.624997416
31
0
12
25.1290264063
22
352.557805445
32
0
13
25.1290264063
23
352.557805445
33
0
0
MTEXT
5
B2
100
AcDbEntity
8
Dimension
6
CONTINUOUS
62
7
370
0
100
AcDbMText
10
27
20
358
30
0
40
5
41
2.22222222222
71
5
72
1
1
8
7
standard
210
0
220
0
230
1
50
309.859170201
73
2
44
1
0
ENDBLK
5
66
330
64
100
AcDbEntity
8
0
100
AcDbBlockEnd
0
BLOCK
5
68
330
67
100
AcDbEntity
8
0
100
AcDbBlockBegin
2
*D4
70
1
10
0
20
0
3
*D4
1

0
LINE
5
B3
100
AcDbEntity
8
Dimension
6
CONTINUOUS
62
7
370
0
100
AcDbLine
10
0
20
420
11
187.5
21
420
0
SOLID
5
B4
100
AcDbEntity
8
Dimension
6
CONTINUOUS
62
7
370
0
100
AcDbTrace
10
0
20
420
30
0
11
5
21
420.832569316
31
0
12
5
22
419.167430684
32
0
13
5
23
419.167430684
33
0
0
SOLID
5
B5
100
AcDbEntity
8
Dimension
6
CONTINUOUS
62
7
370
0
100
AcDbTrace
10
187.5
20
420
30
0
11
182.5
21
419.167430684
31
0
12
182.5
22
420.832569316
32
0
13
182.5
23
420.832569316
33
0
0
MTEXT
5
B6
100
AcDbEntity
8
Dimension
6
CONTINUOUS
62
7
370
0
100
AcDbMText
10
93.75
20
423.75
30
0
40
5
41
14.4444444444
71
5
72
1
1
187.5
7
standard
210
0
220
0
230
1
50
0
73
2
44
1
0
LINE
5
B7
100
AcDbEntity
8
Dimension
6
CONTINUOUS
62
7
370
0
100
AcDbLine
10
7.65404249467e-17
20
381.25
11
1.53080849893e-16
21
422.5
0
LINE
5
B8
100
AcDbEntity
8
Dimension
6
CONTINUOUS
62
7
370
0
100
AcDbLine
10
187.5
20
361.25
11
187.5
21
422.5
0
ENDBLK
5
69
330
67
100
AcDbEntity
8
0
100
AcDbBlockEnd
0
BLOCK
5
6B
330
6A
100
AcDbEntity
8
0
100
AcDbBlockBegin
2
*D17
70
1
10
0
20
0
3
*D17
1

0
LINE
5
B9
100
AcDbEntity
8
Dimension
6
CONTINUOUS
62
7
370
0
100
AcDbLine
10
97.9289321881
20
107.071067812
11
112.071067812
21
92.9289321881
0
SOLID
5
BA
100
AcDbEntity
8
Dimension
6
CONTINUOUS
62
7
370
0
100
AcDbTrace
10
97.9289321881
20
107.071067812
30
0
11
102.053181503
21
104.124249315
31
0
12
100.875750685
22
102.946818497
32
0
13
100.875750685
23
102.946818497
33
0
0
SOLID
5
BB
100
AcDbEntity
8
Dimension
6
CONTINUOUS
62
7
370
0
100
AcDbTrace
10
112.071067812
20
92.9289321881
30
0
11
107.946818497
21
95.8757506852
31
0
12
109.124249315
22
97.0531815029
32
0
13
109.124249315
23
97.0531815029
33
0
0
MTEXT
5
BC
100
AcDbEntity
8
Dimension
6
CONTINUOUS
62
7
370
0
100
AcDbMText
10
107.651650429
20
102.651650429
30
0
40
5
41
6.11111111111
71
5
72
1
1
20
7
standard
210
0
220
0
230
1
50
315
73
2
44
1
0
ENDBLK
5
6C
330
6A
100
AcDbEntity
8
0
100
AcDbBlockEnd
0
BLOCK
5
6E
330
6D
100
AcDbEntity
8
0
100
AcDbBlockBegin
2
*D16
70
1
10
0
20
0
3
*D16
1

0
LINE
5
BD
100
AcDbEntity
8
Dimension
6
CONTINUOUS
62
7
370
0
100
AcDbLine
10
92.4
20
240
11
117.6
21
240
0
SOLID
5
BE
100
AcDbEntity
8
Dimension
6
CONTINUOUS
62
7
370
0
100
AcDbTrace
10
92.4
20
240
30
0
11
97.4
21
240.832569316
31
0
12
97.4
22
239.167430684
32
0
13
97.4
23
239.167430684
33
0
0
SOLID
5
BF
100
AcDbEntity
8
Dimension
6
CONTINUOUS
62
7
370
0
100
AcDbTrace
10
117.6
20
240
30
0
11
112.6
21
239.167430684
31
0
12
112.6
22
240.832569316
32
0
13
112.6
23
240.832569316
33
0
0
MTEXT
5
C0
100
AcDbEntity
8
Dimension
6
CONTINUOUS
62
7
370
0
100
AcDbMText
10
105
20
243.75
30
0
40
5
41
11.6666666667
71
5
72
1
1
25.2
7
standard
210
0
220
0
230
1
50
0
73
2
44
1
0
ENDBLK
5
6F
330
6D
100
AcDbEntity
8
0
100
AcDbBlockEnd
0
BLOCK
5
71
330
70
100
AcDbEntity
8
0
100
AcDbBlockBegin
2
*D5
70
1
10
0
20
0
3
*D5
1

0
LINE
5
C1
100
AcDbEntity
8
Dimension
6
CONTINUOUS
62
7
370
0
100
AcDbLine
10
0
20
430
11
257.4
21
430
0
SOLID
5
C2
100
AcDbEntity
8
Dimension
6
CONTINUOUS
62
7
370
0
100
AcDbTrace
10
0
20
430
30
0
11
5
21
430.832569316
31
0
12
5
22
429.167430684
32
0
13
5
23
429.167430684
33
0
0
SOLID
5
C3
100
AcDbEntity
8
Dimension
6
CONTINUOUS
62
7
370
0
100
AcDbTrace
10
257.4
20
430
30
0
11
252.4
21
429.167430684
31
0
12
252.4
22
430.832569316
32
0
13
252.4
23
430.832569316
33
0
0
MTEXT
5
C4
100
AcDbEntity
8
Dimension
6
CONTINUOUS
62
7
370
0
100
AcDbMText
10
128.7
20
433.75
30
0
40
5
41
16.1111111111
71
5
72
1
1
257.4
7
standard
210
0
220
0
230
1
50
0
73
2
44
1
0
LINE
5
C5
100
AcDbEntity
8
Dimension
6
CONTINUOUS
62
7
370
0
100
AcDbLine
10
7.65404249467e-17
20
381.25
11
1.53080849893e-16
21
432.5
0
LINE
5
C6
100
AcDbEntity
8
Dimension
6
CONTINUOUS
62
7
370
0
100
AcDbLine
10
257.4
20
381.25
11
257.4
21
432.5
0
ENDBLK
5
72
330
70
100
AcDbEntity
8
0
100
AcDbBlockEnd
0
BLOCK
5
74
330
73
100
AcDbEntity
8
0
100
AcDbBlockBegin
2
*D6
70
1
10
0
20
0
3
*D6
1

0
LINE
5
C7
100
AcDbEntity
8
Dimension
6
CONTINUOUS
62
7
370
0
100
AcDbLine
10
0
20
440
11
282.6
21
440
0
SOLID
5
C8
100
AcDbEntity
8
Dimension
6
CONTINUOUS
62
7
370
0
100
AcDbTrace
10
0
20
440
30
0
11
5
21
440.832569316
31
0
12
5
22
439.167430684
32
0
13
5
23
439.167430684
33
0
0
SOLID
5
C9
100
AcDbEntity
8
Dimension
6
CONTINUOUS
62
7
370
0
100
AcDbTrace
10
282.6
20
440
30
0
11
277.6
21
439.167430684
31
0
12
277.6
22
440.832569316
32
0
13
277.6
23
440.832569316
33
0
0
MTEXT
5
CA
100
AcDbEntity
8
Dimension
6
CONTINUOUS
62
7
370
0
100
AcDbMText
10
141.3
20
443.75
30
0
40
5
41
15.5555555556
71
5
72
1
1
282.6
7
standard
210
0
220
0
230
1
50
0
73
2
44
1
0
LINE
5
CB
100
AcDbEntity
8
Dimension
6
CONTINUOUS
62
7
370
0
100
AcDbLine
10
7.65404249467e-17
20
381.25
11
1.53080849893e-16
21
442.5
0
LINE
5
CC
100
AcDbEntity
8
Dimension
6
CONTINUOUS
62
7
370
0
100
AcDbLine
10
282.6
20
381.25
11
282.6
21
442.5
0
ENDBLK
5
75
330
73
100
AcDbEntity
8
0
100
AcDbBlockEnd
0
BLOCK
5
77
330
76
100
AcDbEntity
8
0
100
AcDbBlockBegin
2
*D3
70
1
10
0
20
0
3
*D3
1

0
LINE
5
CD
100
AcDbEntity
8
Dimension
6
CONTINUOUS
62
7
370
0
100
AcDbLine
10
0
20
410
11
117.6
21
410
0
SOLID
5
CE
100
AcDbEntity
8
Dimension
6
CONTINUOUS
62
7
370
0
100
AcDbTrace
10
0
20
410
30
0
11
5
21
410.832569316
31
0
12
5
22
409.167430684
32
0
13
5
23
409.167430684
33
0
0
SOLID
5
CF
100
AcDbEntity
8
Dimension
6
CONTINUOUS
62
7
370
0
100
AcDbTrace
10
117.6
20
410
30
0
11
112.6
21
409.167430684
31
0
12
112.6
22
410.832569316
32
0
13
112.6
23
410.832569316
33
0
0
MTEXT
5
D0
100
AcDbEntity
8
Dimension
6
CONTINUOUS
62
7
370
0
100
AcDbMText
10
58.8
20
413.75
30
0
40
5
41
13.3333333333
71
5
72
1
1
117.6
7
standard
210
0
220
0
230
1
50
0
73
2
44
1
0
LINE
5
D1
100
AcDbEntity
8
Dimension
6
CONTINUOUS
62
7
370
0
100
AcDbLine
10
7.65404249467e-17
20
381.25
11
1.53080849893e-16
21
412.5
0
LINE
5
D2
100
AcDbEntity
8
Dimension
6
CONTINUOUS
62
7
370
0
100
AcDbLine
10
117.6
20
381.25
11
117.6
21
412.5
0
ENDBLK
5
78
330
76
100
AcDbEntity
8
0
100
AcDbBlockEnd
0
BLOCK
5
7A
330
79
100
AcDbEntity
8
0
100
AcDbBlockBegin
2
*D10
70
1
10
0
20
0
3
*D10
1

0
LINE
5
D3
100
AcDbEntity
8
Dimension
6
CONTINUOUS
62
7
370
0
100
AcDbLine
10
-20
20
380
11
-20
21
240
0
SOLID
5
D4
100
AcDbEntity
8
Dimension
6
CONTINUOUS
62
7
370
0
100
AcDbTrace
10
-20
20
380
30
0
11
-19.1674306845
21
375
31
0
12
-20.8325693155
22
375
32
0
13
-20.8325693155
23
375
33
0
0
SOLID
5
D5
100
AcDbEntity
8
Dimension
6
CONTINUOUS
62
7
370
0
100
AcDbTrace
10
-20
20
240
30
0
11
-20.8325693155
21
245
31
0
12
-19.1674306845
22
245
32
0
13
-19.1674306845
23
245
33
0
0
MTEXT
5
D6
100
AcDbEntity
8
Dimension
6
CONTINUOUS
62
7
370
0
100
AcDbMText
10
-23.75
20
310
30
0
40
5
41
9.44444444444
71
5
72
1
1
140
7
standard
210
0
220
0
230
1
50
90
73
2
44
1
0
LINE
5
D7
100
AcDbEntity
8
Dimension
6
CONTINUOUS
62
7
370
0
100
AcDbLine
10
-1.25
20
380
11
-22.5
21
380
0
LINE
5
D8
100
AcDbEntity
8
Dimension
6
CONTINUOUS
62
7
370
0
100
AcDbLine
10
103.75
20
240
11
-22.5
21
240
0
ENDBLK
5
7B
330
79
100
AcDbEntity
8
0
100
AcDbBlockEnd
0
BLOCK
5
7D
330
7C
100
AcDbEntity
8
0
100
AcDbBlockBegin
2
*D7
70
1
10
0
20
0
3
*D7
1

0
LINE
5
D9
100
AcDbEntity
8
Dimension
6
CONTINUOUS
62
7
370
0
100
AcDbLine
10
0
20
450
11
355
21
450
0
SOLID
5
DA
100
AcDbEntity
8
Dimension
6
CONTINUOUS
62
7
370
0
100
AcDbTrace
10
0
20
450
30
0
11
5
21
450.832569316
31
0
12
5
22
449.167430684
32
0
13
5
23
449.167430684
33
0
0
SOLID
5
DB
100
AcDbEntity
8
Dimension
6
CONTINUOUS
62
7
370
0
100
AcDbTrace
10
355
20
450
30
0
11
350
21
449.167430684
31
0
12
350
22
450.832569316
32
0
13
350
23
450.832569316
33
0
0
MTEXT
5
DC
100
AcDbEntity
8
Dimension
6
CONTINUOUS
62
7
370
0
100
AcDbMText
10
177.5
20
453.75
30
0
40
5
41
10
71
5
72
1
1
355
7
standard
210
0
220
0
230
1
50
0
73
2
44
1
0
LINE
5
DD
100
AcDbEntity
8
Dimension
6
CONTINUOUS
62
7
370
0
100
AcDbLine
10
7.65404249467e-17
20
381.25
11
1.53080849893e-16
21
452.5
0
LINE
5
DE
100
AcDbEntity
8
Dimension
6
CONTINUOUS
62
7
370
0
100
AcDbLine
10
355
20
361.25
11
355
21
452.5
0
ENDBLK
5
7E
330
7C
100
AcDbEntity
8
0
100
AcDbBlockEnd
0
ENDSEC
0
SECTION
2
ENTITIES
0
CIRCLE
5
DF
100
AcDbEntity
8
Wheels
6
ByLayer
62
256
370
-1
100
AcDbCircle
10
105
20
100
40
80
0
CIRCLE
5
E0
100
AcDbEntity
8
Wheels
6
ByLayer
62
256
370
-1
100
AcDbCircle
10
105
20
100
40
10
0
CIRCLE
5
E1
100
AcDbEntity
8
Wheels
6
ByLayer
62
256
370
-1
100
AcDbCircle
10
105
20
263
40
80
0
CIRCLE
5
E2
100
AcDbEntity
8
Wheels
6
ByLayer
62
256
370
-1
100
AcDbCircle
10
105
20
263
40
10
0
CIRCLE
5
E3
100
AcDbEntity
8
Wheels
6
ByLayer
62
256
370
-1
100
AcDbCircle
10
270
20
100
40
80
0
CIRCLE
5
E4
100
AcDbEntity
8
Wheels
6
ByLayer
62
256
370
-1
100
AcDbCircle
10
270
20
100
40
10
0
CIRCLE
5
E5
100
AcDbEntity
8
Wheels
6
ByLayer
62
256
370
-1
100
AcDbCircle
10
270
20
263
40
80
0
CIRCLE
5
E6
100
AcDbEntity
8
Wheels
6
ByLayer
62
256
370
-1
100
AcDbCircle
10
270
20
263
40
10
0
CIRCLE
5
E7
100
AcDbEntity
8
0
6
ByLayer
62
256
370
-1
100
AcDbCircle
10
105
20
100
40
10
0
CIRCLE
5
E8
100
AcDbEntity
8
0
6
ByLayer
62
256
370
-1
100
AcDbCircle
10
270
20
100
40
10
0
LINE
5
E9
100
AcDbEntity
8
0
6
ByLayer
62
256
370
-1
100
AcDbLine
10
117.6
20
380
11
257.4
21
380
0
LINE
5
EA
100
AcDbEntity
8
0
6
ByLayer
62
256
370
-1
100
AcDbLine
10
117.6
20
240
11
117.6
21
380
0
ARC
5
EB
100
AcDbEntity
8
0
6
ByLayer
62
256
370
-1
100
AcDbCircle
10
105
20
240
40
12.6
100
AcDbArc
50
180
51
360
0
LINE
5
EC
100
AcDbEntity
8
0
6
ByLayer
62
256
370
-1
100
AcDbLine
10
92.4
20
240
11
92.4
21
380
0
LINE
5
ED
100
AcDbEntity
8
0
6
ByLayer
62
256
370
-1
100
AcDbLine
10
257.4
20
240
11
257.4
21
380
0
LINE
5
EE
100
AcDbEntity
8
0
6
ByLayer
62
256
370
-1
100
AcDbLine
10
282.6
20
240
11
282.6
21
380
0
ARC
5
EF
100
AcDbEntity
8
0
6
ByLayer
62
256
370
-1
100
AcDbCircle
10
270
20
240
40
12.6
100
AcDbArc
50
180
51
0
0
CIRCLE
5
F0
100
AcDbEntity
8
Corner-Blocks
6
ByLayer
62
256
370
-1
100
AcDbCircle
10
187.5
20
364
40
16
0
LINE
5
F1
100
AcDbEntity
8
Corner-Blocks
6
ByLayer
62
256
370
-1
100
AcDbLine
10
171.5
20
348
11
203.5
21
348
0
LINE
5
F2
100
AcDbEntity
8
Corner-Blocks
6
ByLayer
62
256
370
-1
100
AcDbLine
10
203.5
20
348
11
203.5
21
380
0
LINE
5
F3
100
AcDbEntity
8
Corner-Blocks
6
ByLayer
62
256
370
-1
100
AcDbLine
10
203.5
20
380
11
171.5
21
380
0
LINE
5
F4
100
AcDbEntity
8
Corner-Blocks
6
ByLayer
62
256
370
-1
100
AcDbLine
10
171.5
20
380
11
171.5
21
348
0
CIRCLE
5
F5
100
AcDbEntity
8
Wheels-Down
6
ByLayer
62
256
370
-1
100
AcDbCircle
10
105
20
100
40
80
0
CIRCLE
5
F6
100
AcDbEntity
8
Wheels-Down
6
ByLayer
62
256
370
-1
100
AcDbCircle
10
105
20
100
40
10
0
CIRCLE
5
F7
100
AcDbEntity
8
Wheels-Down
6
ByLayer
62
256
370
-1
100
AcDbCircle
10
270
20
100
40
80
0
CIRCLE
5
F8
100
AcDbEntity
8
Wheels-Down
6
ByLayer
62
256
370
-1
100
AcDbCircle
10
270
20
100
40
10
0
CIRCLE
5
F9
100
AcDbEntity
8
Wheels-Down
6
ByLayer
62
256
370
-1
100
AcDbCircle
10
105
20
260
40
80
0
CIRCLE
5
FA
100
AcDbEntity
8
Wheels-Down
6
ByLayer
62
256
370
-1
100
AcDbCircle
10
105
20
260
40
10
0
CIRCLE
5
FB
100
AcDbEntity
8
Wheels-Down
6
ByLayer
62
256
370
-1
100
AcDbCircle
10
270
20
260
40
80
0
CIRCLE
5
FC
100
AcDbEntity
8
Wheels-Down
6
ByLayer
62
256
370
-1
100
AcDbCircle
10
270
20
260
40
10
0
LINE
5
FD
100
AcDbEntity
8
0
6
ByLayer
62
256
370
-1
100
AcDbLine
10
0
20
380
11
92.4
21
380
0
LINE
5
FE
100
AcDbEntity
8
0
6
ByLayer
62
256
370
-1
100
AcDbLine
10
0
20
0
11
0
21
380
0
CIRCLE
5
FF
100
AcDbEntity
8
Corner-Blocks
6
ByLayer
62
256
370
-1
100
AcDbCircle
10
16
20
16
40
16
0
LINE
5
100
100
AcDbEntity
8
Corner-Blocks
6
ByLayer
62
256
370
-1
100
AcDbLine
10
0
20
0
11
32
21
0
0
LINE
5
101
100
AcDbEntity
8
Corner-Blocks
6
ByLayer
62
256
370
-1
100
AcDbLine
10
32
20
0
11
32
21
32
0
LINE
5
102
100
AcDbEntity
8
Corner-Blocks
6
ByLayer
62
256
370
-1
100
AcDbLine
10
32
20
32
11
0
21
32
0
LINE
5
103
100
AcDbEntity
8
Corner-Blocks
6
ByLayer
62
256
370
-1
100
AcDbLine
10
0
20
32
11
0
21
0
0
CIRCLE
5
104
100
AcDbEntity
8
Corner-Blocks
6
ByLayer
62
256
370
-1
100
AcDbCircle
10
16
20
202
40
16
0
LINE
5
105
100
AcDbEntity
8
Corner-Blocks
6
ByLayer
62
256
370
-1
100
AcDbLine
10
0
20
186
11
32
21
186
0
LINE
5
106
100
AcDbEntity
8
Corner-Blocks
6
ByLayer
62
256
370
-1
100
AcDbLine
10
32
20
186
11
32
21
218
0
LINE
5
107
100
AcDbEntity
8
Corner-Blocks
6
ByLayer
62
256
370
-1
100
AcDbLine
10
32
20
218
11
0
21
218
0
LINE
5
108
100
AcDbEntity
8
Corner-Blocks
6
ByLayer
62
256
370
-1
100
AcDbLine
10
0
20
218
11
0
21
186
0
CIRCLE
5
109
100
AcDbEntity
8
Corner-Blocks
6
ByLayer
62
256
370
-1
100
AcDbCircle
10
16
20
364
40
16
0
LINE
5
10A
100
AcDbEntity
8
Corner-Blocks
6
ByLayer
62
256
370
-1
100
AcDbLine
10
0
20
348
11
32
21
348
0
LINE
5
10B
100
AcDbEntity
8
Corner-Blocks
6
ByLayer
62
256
370
-1
100
AcDbLine
10
32
20
348
11
32
21
380
0
LINE
5
10C
100
AcDbEntity
8
Corner-Blocks
6
ByLayer
62
256
370
-1
100
AcDbLine
10
32
20
380
11
0
21
380
0
LINE
5
10D
100
AcDbEntity
8
Corner-Blocks
6
ByLayer
62
256
370
-1
100
AcDbLine
10
0
20
380
11
0
21
348
0
LINE
5
10E
100
AcDbEntity
8
0
6
ByLayer
62
256
370
-1
100
AcDbLine
10
375
20
0
11
0
21
0
0
CIRCLE
5
10F
100
AcDbEntity
8
Corner-Blocks
6
ByLayer
62
256
370
-1
100
AcDbCircle
10
359
20
16
40
16
0
LINE
5
110
100
AcDbEntity
8
Corner-Blocks
6
ByLayer
62
256
370
-1
100
AcDbLine
10
343
20
0
11
375
21
0
0
LINE
5
111
100
AcDbEntity
8
Corner-Blocks
6
ByLayer
62
256
370
-1
100
AcDbLine
10
375
20
0
11
375
21
32
0
LINE
5
112
100
AcDbEntity
8
Corner-Blocks
6
ByLayer
62
256
370
-1
100
AcDbLine
10
375
20
32
11
343
21
32
0
LINE
5
113
100
AcDbEntity
8
Corner-Blocks
6
ByLayer
62
256
370
-1
100
AcDbLine
10
343
20
32
11
343
21
0
0
CIRCLE
5
114
100
AcDbEntity
8
Corner-Blocks
6
ByLayer
62
256
370
-1
100
AcDbCircle
10
359
20
202
40
16
0
LINE
5
115
100
AcDbEntity
8
Corner-Blocks
6
ByLayer
62
256
370
-1
100
AcDbLine
10
343
20
186
11
375
21
186
0
LINE
5
116
100
AcDbEntity
8
Corner-Blocks
6
ByLayer
62
256
370
-1
100
AcDbLine
10
375
20
186
11
375
21
218
0
LINE
5
117
100
AcDbEntity
8
Corner-Blocks
6
ByLayer
62
256
370
-1
100
AcDbLine
10
375
20
218
11
343
21
218
0
LINE
5
118
100
AcDbEntity
8
Corner-Blocks
6
ByLayer
62
256
370
-1
100
AcDbLine
10
343
20
218
11
343
21
186
0
CIRCLE
5
119
100
AcDbEntity
8
Corner-Blocks
6
ByLayer
62
256
370
-1
100
AcDbCircle
10
359
20
364
40
16
0
LINE
5
11A
100
AcDbEntity
8
Corner-Blocks
6
ByLayer
62
256
370
-1
100
AcDbLine
10
343
20
348
11
375
21
348
0
LINE
5
11B
100
AcDbEntity
8
Corner-Blocks
6
ByLayer
62
256
370
-1
100
AcDbLine
10
375
20
348
11
375
21
380
0
LINE
5
11C
100
AcDbEntity
8
Corner-Blocks
6
ByLayer
62
256
370
-1
100
AcDbLine
10
375
20
380
11
343
21
380
0
LINE
5
11D
100
AcDbEntity
8
Corner-Blocks
6
ByLayer
62
256
370
-1
100
AcDbLine
10
343
20
380
11
343
21
348
0
LINE
5
11E
100
AcDbEntity
8
0
6
ByLayer
62
256
370
-1
100
AcDbLine
10
282.6
20
380
11
375
21
380
0
LINE
5
11F
100
AcDbEntity
8
0
6
ByLayer
62
256
370
-1
100
AcDbLine
10
375
20
380
11
375
21
0
0
LINE
5
120
100
AcDbEntity
8
helper
6
ByLayer
62
256
370
-1
100
AcDbLine
10
-20
20
0
11
-70
21
0
0
LINE
5
121
100
AcDbEntity
8
helper
6
ByLayer
62
256
370
-1
100
AcDbLine
10
-70
20
0
11
-70
21
388
0
LINE
5
122
100
AcDbEntity
8
helper
6
ByLayer
62
256
370
-1
100
AcDbLine
10
-70
20
388
11
-20
21
388
0
LINE
5
123
100
AcDbEntity
8
helper
6
ByLayer
62
256
370
-1
100
AcDbLine
10
-20
20
388
11
-20
21
0
0
LINE
5
124
100
AcDbEntity
8
helper
6
ByLayer
62
256
370
-1
100
AcDbLine
10
0
20
400
11
375
21
400
0
LINE
5
125
100
AcDbEntity
8
helper
6
ByLayer
62
256
370
-1
100
AcDbLine
10
375
20
400
11
375
21
450
0
LINE
5
126
100
AcDbEntity
8
helper
6
ByLayer
62
256
370
-1
100
AcDbLine
10
375
20
450
11
0
21
450
0
LINE
5
127
100
AcDbEntity
8
helper
6
ByLayer
62
256
370
-1
100
AcDbLine
10
0
20
450
11
0
21
400
0
CIRCLE
5
128
100
AcDbEntity
8
Bolts
6
ByLayer
62
256
370
-1
100
AcDbCircle
10
187.5
20
360
40
4
0
CIRCLE
5
129
100
AcDbEntity
8
Bolts
6
ByLayer
62
256
370
-1
100
AcDbCircle
10
20
20
20
40
4
0
CIRCLE
5
12A
100
AcDbEntity
8
Bolts
6
ByLayer
62
256
370
-1
100
AcDbCircle
10
20
20
202
40
4
0
CIRCLE
5
12B
100
AcDbEntity
8
Bolts
6
ByLayer
62
256
370
-1
100
AcDbCircle
10
20
20
360
40
4
0
CIRCLE
5
12C
100
AcDbEntity
8
Bolts
6
ByLayer
62
256
370
-1
100
AcDbCircle
10
355
20
20
40
4
0
CIRCLE
5
12D
100
AcDbEntity
8
Bolts
6
ByLayer
62
256
370
-1
100
AcDbCircle
10
355
20
202
40
4
0
CIRCLE
5
12E
100
AcDbEntity
8
Bolts
6
ByLayer
62
256
370
-1
100
AcDbCircle
10
355
20
360
40
4
0
CIRCLE
5
12F
100
AcDbEntity
8
Bolts
6
ByLayer
62
256
370
-1
100
AcDbCircle
10
187.5
20
202
40
4
0
CIRCLE
5
130
100
AcDbEntity
8
0
6
ByLayer
62
256
370
-1
100
AcDbCircle
10
20
20
20
40
4.1
0
CIRCLE
5
131
100
AcDbEntity
8
0
6
ByLayer
62
256
370
-1
100
AcDbCircle
10
355
20
20
40
4.1
0
CIRCLE
5
132
100
AcDbEntity
8
0
6
ByLayer
62
256
370
-1
100
AcDbCircle
10
20
20
202
40
4.1
0
CIRCLE
5
133
100
AcDbEntity
8
0
6
ByLayer
62
256
370
-1
100
AcDbCircle
10
187.5
20
202
40
4.1
0
CIRCLE
5
134
100
AcDbEntity
8
0
6
ByLayer
62
256
370
-1
100
AcDbCircle
10
355
20
202
40
4.1
0
CIRCLE
5
135
100
AcDbEntity
8
0
6
ByLayer
62
256
370
-1
100
AcDbCircle
10
355
20
360
40
4.1
0
CIRCLE
5
136
100
AcDbEntity
8
0
6
ByLayer
62
256
370
-1
100
AcDbCircle
10
187.5
20
360
40
4.1
0
CIRCLE
5
137
100
AcDbEntity
8
0
6
ByLayer
62
256
370
-1
100
AcDbCircle
10
20
20
360
40
4.1
0
DIMENSION
5
138
100
AcDbEntity
8
Dimension
6
ByLayer
62
256
370
-1
100
AcDbDimension
2
*D1
10
20
20
385
30
0
11
10
21
388.75
31
0
70
32
71
5
3
Standard
53
0
210
0
220
0
230
1
100
AcDbAlignedDimension
13
0
23
380
33
0
14
20
24
360
34
0
100
AcDbRotatedDimension
0
DIMENSION
5
139
100
AcDbEntity
8
Dimension
6
ByLayer
62
256
370
-1
100
AcDbDimension
2
*D2
10
92.4
20
400
30
0
11
46.2
21
403.75
31
0
70
32
71
5
3
Standard
53
0
210
0
220
0
230
1
100
AcDbAlignedDimension
13
0
23
380
33
0
14
92.4
24
380
34
0
100
AcDbRotatedDimension
0
DIMENSION
5
13A
100
AcDbEntity
8
Dimension
6
ByLayer
62
256
370
-1
100
AcDbDimension
2
*D3
10
117.6
20
410
30
0
11
58.8
21
413.75
31
0
70
32
71
5
3
Standard
53
0
210
0
220
0
230
1
100
AcDbAlignedDimension
13
0
23
380
33
0
14
117.6
24
380
34
0
100
AcDbRotatedDimension
0
DIMENSION
5
13B
100
AcDbEntity
8
Dimension
6
ByLayer
62
256
370
-1
100
AcDbDimension
2
*D4
10
187.5
20
420
30
0
11
93.75
21
423.75
31
0
70
32
71
5
3
Standard
53
0
210
0
220
0
230
1
100
AcDbAlignedDimension
13
0
23
380
33
0
14
187.5
24
360
34
0
100
AcDbRotatedDimension
0
DIMENSION
5
13C
100
AcDbEntity
8
Dimension
6
ByLayer
62
256
370
-1
100
AcDbDimension
2
*D5
10
257.4
20
430
30
0
11
128.7
21
433.75
31
0
70
32
71
5
3
Standard
53
0
210
0
220
0
230
1
100
AcDbAlignedDimension
13
0
23
380
33
0
14
257.4
24
380
34
0
100
AcDbRotatedDimension
0
DIMENSION
5
13D
100
AcDbEntity
8
Dimension
6
ByLayer
62
256
370
-1
100
AcDbDimension
2
*D6
10
282.6
20
440
30
0
11
141.3
21
443.75
31
0
70
32
71
5
3
Standard
53
0
210
0
220
0
230
1
100
AcDbAlignedDimension
13
0
23
380
33
0
14
282.6
24
380
34
0
100
AcDbRotatedDimension
0
DIMENSION
5
13E
100
AcDbEntity
8
Dimension
6
ByLayer
62
256
370
-1
100
AcDbDimension
2
*D7
10
355
20
450
30
0
11
177.5
21
453.75
31
0
70
32
71
5
3
Standard
53
0
210
0
220
0
230
1
100
AcDbAlignedDimension
13
0
23
380
33
0
14
355
24
360
34
0
100
AcDbRotatedDimension
0
DIMENSION
5
13F
100
AcDbEntity
8
Dimension
6
ByLayer
62
256
370
-1
100
AcDbDimension
2
*D8
10
375
20
460
30
0
11
187.5
21
463.75
31
0
70
32
71
5
3
Standard
53
0
210
0
220
0
230
1
100
AcDbAlignedDimension
13
0
23
380
33
0
14
375
24
380
34
0
100
AcDbRotatedDimension
0
DIMENSION
5
140
100
AcDbEntity
8
Dimension
6
ByLayer
62
256
370
-1
100
AcDbDimension
2
*D9
10
-10
20
360
30
0
11
-13.75
21
370
31
0
70
32
71
5
3
Standard
53
0
210
0
220
0
230
1
100
AcDbAlignedDimension
13
0
23
380
33
0
14
20
24
360
34
0
50
90
100
AcDbRotatedDimension
0
DIMENSION
5
141
100
AcDbEntity
8
Dimension
6
ByLayer
62
256
370
-1
100
AcDbDimension
2
*D10
10
-20
20
240
30
0
11
-23.75
21
310
31
0
70
32
71
5
3
Standard
53
0
210
0
220
0
230
1
100
AcDbAlignedDimension
13
0
23
380
33
0
14
105
24
240
34
0
50
90
100
AcDbRotatedDimension
0
DIMENSION
5
142
100
AcDbEntity
8
Dimension
6
ByLayer
62
256
370
-1
100
AcDbDimension
2
*D11
10
-30
20
202
30
0
11
-33.75
21
291
31
0
70
32
71
5
3
Standard
53
0
210
0
220
0
230
1
100
AcDbAlignedDimension
13
0
23
380
33
0
14
20
24
202
34
0
50
90
100
AcDbRotatedDimension
0
DIMENSION
5
143
100
AcDbEntity
8
Dimension
6
ByLayer
62
256
370
-1
100
AcDbDimension
2
*D12
10
-40
20
100
30
0
11
-43.75
21
240
31
0
70
32
71
5
3
Standard
53
0
210
0
220
0
230
1
100
AcDbAlignedDimension
13
0
23
380
33
0
14
105
24
100
34
0
50
90
100
AcDbRotatedDimension
0
DIMENSION
5
144
100
AcDbEntity
8
Dimension
6
ByLayer
62
256
370
-1
100
AcDbDimension
2
*D13
10
-50
20
20
30
0
11
-53.75
21
200
31
0
70
32
71
5
3
Standard
53
0
210
0
220
0
230
1
100
AcDbAlignedDimension
13
0
23
380
33
0
14
20
24
20
34
0
50
90
100
AcDbRotatedDimension
0
DIMENSION
5
145
100
AcDbEntity
8
Dimension
6
ByLayer
62
256
370
-1
100
AcDbDimension
2
*D14
10
-60
20
7.34788079488e-15
30
0
11
-63.75
21
190
31
0
70
32
71
5
3
Standard
53
0
210
0
220
0
230
1
100
AcDbAlignedDimension
13
0
23
380
33
0
14
0
24
0
34
0
50
90
100
AcDbRotatedDimension
0
DIMENSION
5
146
100
AcDbEntity
8
Dimension
6
ByLayer
62
256
370
-1
100
AcDbDimension
2
*D15
10
17.4363888969
20
363.070488253
30
0
11
27
21
358
31
0
70
35
71
5
3
Standard
53
0
210
0
220
0
230
1
100
AcDbDiametricDimension
15
22.5636111031
25
356.929511747
35
0
40
0
0
DIMENSION
5
147
100
AcDbEntity
8
Dimension
6
ByLayer
62
256
370
-1
100
AcDbDimension
2
*D16
10
92.4
20
240
30
0
11
105
21
243.75
31
0
70
35
71
5
3
Standard
53
0
210
0
220
0
230
1
100
AcDbDiametricDimension
15
117.6
25
240
35
0
40
0
0
DIMENSION
5
148
100
AcDbEntity
8
Dimension
6
ByLayer
62
256
370
-1
100
AcDbDimension
2
*D17
10
97.9289321881
20
107.071067812
30
0
11
107.651650429
21
102.651650429
31
0
70
35
71
5
3
Standard
53
0
210
0
220
0
230
1
100
AcDbDiametricDimension
15
112.071067812
25
92.9289321881
35
0
40
0
0
ENDSEC
0
SECTION
2
OBJECTS
0
DICTIONARY
5
C
330
0
100
AcDbDictionary
281
1
3
ACAD_GROUP
350
D
0
DICTIONARY
5
D
330
C
100
AcDbDictionary
281
1
0
ENDSEC
0
EOF
